<?xml version="1.0" encoding="UTF-8" standalone="no" ?>
<!DOCTYPE svg PUBLIC "-//W3C//DTD SVG 1.1//EN" "http://www.w3.org/Graphics/SVG/1.1/DTD/svg11.dtd">
<svg xmlns="http://www.w3.org/2000/svg" xmlns:xlink="http://www.w3.org/1999/xlink" version="1.1" width="445" height="445" viewBox="0 0 445 445" xml:space="preserve">
<desc>Created with Fabric.js 1.7.22</desc>
<defs>
</defs>
<g id="icon" style="stroke: none; stroke-width: 1; stroke-dasharray: none; stroke-linecap: butt; stroke-linejoin: miter; stroke-miterlimit: 10; fill: none; fill-rule: nonzero; opacity: 1;" transform="translate(-2.4722222222222285 -2.4722222222222285) scale(4.94 4.94)" >
	<path d="M 45 90 c -15.663 0 -29.952 -8.61 -37.292 -22.472 l -0.496 -0.936 l 0.496 -0.936 c 4.178 -7.889 10.896 -14.376 18.918 -18.267 c 2.654 -1.286 5.752 -1.266 8.501 0.055 c 3.095 1.487 6.417 2.241 9.872 2.241 c 3.455 0 6.777 -0.754 9.872 -2.241 c 2.752 -1.321 5.85 -1.341 8.502 -0.055 c 8.022 3.891 14.74 10.378 18.917 18.267 l 0.495 0.936 l -0.495 0.936 C 74.952 81.39 60.663 90 45 90 z" style="stroke: none; stroke-width: 1; stroke-dasharray: none; stroke-linecap: butt; stroke-linejoin: miter; stroke-miterlimit: 10; fill: rgb(0,0,0); fill-rule: nonzero; opacity: 1;" transform=" matrix(1 0 0 1 0 0) " stroke-linecap="round" />
	<path d="M 45 42.645 c -11.757 0 -21.323 -9.565 -21.323 -21.322 S 33.243 0 45 0 c 11.757 0 21.322 9.565 21.322 21.323 S 56.757 42.645 45 42.645 z" style="stroke: none; stroke-width: 1; stroke-dasharray: none; stroke-linecap: butt; stroke-linejoin: miter; stroke-miterlimit: 10; fill: rgb(0,0,0); fill-rule: nonzero; opacity: 1;" transform=" matrix(1 0 0 1 0 0) " stroke-linecap="round" />
</g>
</svg>